<?xml version="1.0" encoding="utf-8"?>
<!-- Generator: Adobe Illustrator 18.0.0, SVG Export Plug-In . SVG Version: 6.00 Build 0)  -->
<!DOCTYPE svg PUBLIC "-//W3C//DTD SVG 1.1//EN" "http://www.w3.org/Graphics/SVG/1.1/DTD/svg11.dtd">
<svg version="1.1" id="Layer_1" xmlns="http://www.w3.org/2000/svg" xmlns:xlink="http://www.w3.org/1999/xlink" x="0px" y="0px"
	 viewBox="0 0 123.5 195.1" enable-background="new 0 0 123.5 195.1" xml:space="preserve">
<g>
	<g>
		<path fill-rule="evenodd" clip-rule="evenodd" fill="#338ECD" d="M43,136.2c-2.3-1-4.7-1.8-6.9-3.1c-2.2-1.3-4.2-2.8-6.1-4.5
			c-1.9-1.6-4.1-2.9-5.6-4.9c-1.6-2.1-3.4-4-4.8-6.1c-1.4-2-3.1-3.8-3.9-6.3c-0.7-2.4-1.7-4.8-2.9-7.1c-1.2-2.3-1.4-4.7-1.7-7.1
			c-0.1,0-0.2,0-0.3,0c-0.1,0.6-0.1,1.1-0.2,1.7c-0.1,0.6-0.1,1.2-0.2,1.9c-0.2,4.4-0.4,8.8-0.5,13.3c0,1.1,0.3,2.1,0.4,3.2
			c0,0.5-0.2,0.9-0.3,1.4c0.1,0.1,0.2,0.2,0.3,0.2c0.6-0.5,1.1-1,1.7-1.5c0.1,0.2,0.3,0.5,0.6,0.9c0.2-0.5,0.3-0.8,0.6-1.4
			c0.2,0.7,0.3,1.2,0.4,1.7c0.2,1.5,0.6,1.8,2,1.2c-0.1,1.4-0.1,1.4,1.2,1.2c0,1.2-2.4,1.5-1.2,3.1c-1.7,0.6-1.9,1.3-0.7,2.8
			c0.4,0.5,0.8,1.1,1.2,1.8c-0.5,0-0.8,0-1.4,0c0.5,0.6,0.9,1.1,1.3,1.6c-0.5,0.4-1.6,0.7-0.5,1.7c-1.5,0.2-0.5,1.5-1.1,2.1
			c-0.5-0.4-1-0.6-1,0.4c-0.5-0.7-1-1.2-1.4-1.8c-0.1,0.1-0.3,0.1-0.4,0.2c0.4,1.3,0.9,2.7,1.3,4c0.1,0.2,0.2,0.5,0.2,0.7
			c-0.6,2.1,0.2,4,0.6,5.9c0.1,0.4-0.2,0.9-0.2,1.3c-0.1,0.7-0.1,1.4-0.2,2.1c0,0.6,0.3,1.3-0.6,1.6c-0.3,0.1-0.5,1-0.5,1.6
			c-0.2,1.2-0.3,2.4-0.3,3.6c0,0.4-0.1,1,0.1,1.3c1.2,1.7,0.6,3.9,1.6,5.7c0.2,0.3,0.2,0.8,0.2,1.1c-0.3,2.8,1,4.6,3.6,5.6
			c-0.2,0.2-0.3,0.3-0.6,0.6c0.7,0.4,1.3,0.8,2,1.3c-1.4,0.6-2.8,0.5-4.1,0.1c-4.9-1.3-8.6-4.1-10.6-9c-0.4-0.9-0.8-1.8-1.1-2.7
			c-1.2-2.8-0.8-5.5,0.2-8.3c0.4-1,0.6-2.1,0.7-3.3c-2.2,0.7-2,2.8-2.7,4.4c0-0.6,0-1.1,0-1.6c0-1.6-0.1-3.1-0.6-4.7
			c-0.7-1.9-0.4-4,0.5-5.9c0.4-1,1-2,1.3-3.1c0.2-0.5,0-1.1,0-2c1.3-0.8,2.9-1.9,4.4-2.9c-0.1-0.1-0.2-0.3-0.2-0.4
			c-1.4,0.6-2.7,1.1-4.1,1.7c0.7-1.5,1.4-3,2.1-4.4c0-0.1,0.2-0.2,0.2-0.3c-0.9-1.9,1.4-3.7,0.2-5.7c-0.1-0.1,0-0.3,0.1-0.4
			c2.2,0.4,2.7-0.1,2.3-2c0.5,0.1,1.1,0.2,1.9,0.4c-0.1-0.9-0.3-1.7-0.3-2.4c0.1-2.8,0.4-5.5,0.5-8.3c0.3-5.2,0.7-10.4,1-15.6
			c0.1-1.4,0.3-2.9-0.6-4.2c-0.2-0.3-0.2-1,0-1.2c1-1.3,0.5-2.8,0.8-4.4c-0.9,1.4-1.7,2.5-2.6,3.9c1-3,2-5.6,2.9-8.3
			c-0.5-0.7-0.8-1.5,0.4-1.9c0.2-0.1,0.3-0.7,0.2-1c-0.3-0.9-0.2-1.5,0.6-2.1c0.3-0.2,0.4-0.5,0.5-0.8c1.2-2.9,2.5-5.8,3.7-8.8
			c0.1-0.3,0.1-0.7,0.1-1c-0.1-0.9,0.2-1.5,1.1-1.7c0.3-0.1,0.6-0.3,0.9-0.6c1.9-2.5,3.9-4.9,5.8-7.4c0.2-0.3,0.3-0.6,0.3-1
			c0-0.9,0.7-1.6,1.6-1.5c0.3,0,0.7-0.1,0.9-0.3c2.6-1.9,5.1-3.9,7.6-5.9c0.2-0.2,0.4-0.5,0.5-0.8c0.2-0.9,1-1.4,1.9-1.1
			c0.3,0.1,0.7,0.1,1,0c2.9-1.2,5.8-2.4,8.7-3.6c0.3-0.1,0.6-0.4,0.7-0.7c0.4-0.8,1.4-1.1,2.1-0.6c0.3,0.2,0.7,0.3,1,0.3
			c3.2-0.4,6.3-0.8,9.5-1.2c0.3,0,0.6-0.2,0.8-0.5c0.6-0.7,1.6-0.7,2.3,0c0.2,0.2,0.6,0.5,0.9,0.5c3,0.4,6.1,0.8,9.1,1.2
			c0.4,0,0.9-0.1,1.3-0.3c0.7-0.4,1.7-0.1,2,0.6c0.1,0.3,0.4,0.6,0.7,0.7c2.9,1.2,5.8,2.4,8.7,3.6c0.3,0.1,0.8,0.1,1.1,0
			c0.8-0.2,1.6,0.3,1.8,1.1c0.1,0.3,0.3,0.7,0.6,0.9c2.4,1.9,4.9,3.8,7.4,5.7c0.3,0.2,0.8,0.4,1.2,0.4c0.7,0,1.5,0.7,1.5,1.5
			c0,0.4,0.1,0.9,0.4,1.2c1.9,2.4,3.7,4.9,5.6,7.3c0.3,0.3,0.7,0.6,1,0.7c0.8,0.4,1.1,0.9,1,1.7c0,0.4,0,0.8,0.1,1.1
			c1.2,2.9,2.4,5.7,3.6,8.6c0.2,0.4,0.5,0.7,0.8,1c0.6,0.6,0.8,1.2,0.4,2c-0.1,0.3,0,0.9,0.2,1c1.3,0.4,1,1.2,0.7,1.6
			c0.2,0.9,0.2,1.6,0.4,2.2c0.7,1.9,1.5,3.7,2.2,5.6c0.1,0.2,0.2,0.3,0.1,0.6c-0.5-0.5-1-1-1.4-1.6c-0.4-0.6-0.7-1.3-1.1-1.9
			c0.2,1.4-0.4,2.9,0.6,4.2c0.2,0.3,0.2,1,0,1.3c-1,1.3-0.7,2.8-0.6,4.1c0.3,6.2,0.7,12.5,1.1,18.7c0.1,1.8,0.4,3.5,0.5,5.3
			c0,0.7-0.2,1.4-0.3,2.3c0.7-0.1,1.3-0.2,1.8-0.3c-0.3,1.9,0.3,2.5,2.4,1.9c0.3,1.4-1.1,3.2,0.7,4.3c-1,2.6,0.9,4.5,1.9,6.7
			c-1.4-0.6-2.8-1.2-4.1-1.7c-0.1,0.1-0.1,0.2-0.2,0.3c0.7,0.5,1.4,1.1,2.2,1.6c0.8,0.5,1.6,1,2.5,1.5c-0.8,1.1-0.3,2,0.1,2.9
			c0.6,1.5,1.2,2.9,1.6,4.5c0.4,1.5,0.1,3-0.4,4.4c-0.4,1-0.3,2.2-0.4,3.3c0,0.7,0,1.4-0.1,2.1c-0.7-1.6-0.5-3.6-2.7-4.7
			c0,0.7,0,1.3,0.1,1.8c0.2,0.9,0.6,1.7,0.9,2.5c0.9,2.4,1.1,4.7,0.1,7.2c-0.1,0.3-0.2,0.7-0.3,1c-1.1,2.8-2.4,5.4-4.6,7.4
			c-2.4,2.1-5.1,3.6-8.3,3.9c-0.9,0.1-1.7-0.1-2.6-0.4c0.6-0.4,1.3-0.8,2-1.2c-0.3-0.2-0.4-0.4-0.6-0.5c0.1-0.1,0.2-0.2,0.2-0.2
			c2.4-1,3.3-2.5,3.3-5.1c0-0.9,0.4-1.8,0.6-2.7c0.2-0.9,0.3-1.9,0.4-2.8c0-0.2,0-0.4,0.2-0.5c0.9-0.8,0.9-1.8,0.8-2.8
			c-0.1-1-0.1-2-0.3-3c-0.2-0.7,0.2-1.8-1.1-2c-0.1,0-0.1-0.8-0.2-1.2c0-0.9,0.4-1.8-0.5-2.6c-0.1-0.1,0-0.5,0-0.8
			c0.5-2,1.2-4,0.6-6.2c0-0.2,0.1-0.4,0.1-0.6c0.4-1.4,0.9-2.7,1.4-4.1c-0.1-0.1-0.3-0.1-0.4-0.2c-0.4,0.6-0.9,1.1-1.3,1.7
			c-0.1-0.5-0.5-1-1-0.3c-0.6-0.6,0.4-1.9-1.1-2.1c0.9-0.9,0.1-1.4-0.5-1.7c0.4-0.5,0.8-0.9,1.3-1.5c-0.5,0-0.8-0.1-1.2-0.1
			c0,0-0.1-0.1,0-0.2c0.3-0.5,0.6-1,1-1.5c1.3-1.6,1.1-2.2-0.6-2.8c1.1-1.6-1-1.9-1.2-3c0.4,0,0.9,0.1,1.1,0
			c0.2-0.2,0.1-0.8,0.2-1.2c0.4,0.2,0.8,0.3,1.4,0.6c0.4-1.1,0.7-2.2,1.1-3.3c0.2,0.4,0.3,0.7,0.5,1.2c0.3-0.4,0.5-0.6,0.7-0.9
			c0.6,0.5,1.1,1,1.7,1.5c0.1-0.1,0.2-0.1,0.3-0.2c-0.1-0.5-0.3-1-0.2-1.5c0.9-6.5,0-12.9-0.4-19.4c0-0.2-0.1-0.4-0.2-0.6
			c-0.1,0-0.3,0-0.4,0c0,1.2,0,2.4,0,3.6c0,0.4-0.1,0.8-0.3,1.2c-0.3,0.7-0.8,1.4-1.1,2.1c-1,2.5-2,4.9-3,7.4
			c-0.2,0.6-0.4,1.3-0.6,1.9c-0.1,0.3-0.2,0.6-0.4,0.8c-1.8,2.4-3.7,4.7-5.5,7.1c-0.8,1.1-1.5,2.2-2.4,3.2c-0.5,0.5-1.2,0.8-1.8,1.3
			c-2.6,2-5.3,4-7.8,6.1c-2.2,1.8-4.9,2.6-7.4,3.9c-0.5,0.2-0.9,0.5-1.3,0.8c0.8,1.7,1.4,3.2,2.1,4.7c-0.1,0-0.1,0-0.2,0.1
			c-0.8-1.3-1.6-2.6-2.4-3.9c-0.1,0-0.2,0-0.2,0.1c0.1,0.6,0.1,1.3,0.2,2c-0.8-0.8-0.3-2.6-2.2-2.4c0.4,3.4,0.3,6.8,1.8,9.9
			c0.6,1.3,1.2,2.6,1.5,4c0.3,1.5,0.3,3,0.3,4.2c0.4,0.2,1,0.3,1,0.5c0.4,1.3,0.7,2.5,1,3.8c0.1,0.4,0.3,0.9,0.1,1.2
			c-0.7,1-0.2,1.9,0.2,2.8c0.1,0.2,0.2,0.4,0.4,0.6c2.1,2.2,2.5,4.9,2.5,7.8c0,1.3,0.2,2.6,0.3,3.9c0.2,2.6,0.1,5.1-1.5,7.2
			c0,0,0,0.1,0,0.1c-0.9,3.9-3.8,6.4-6,9.4c-0.6,0.9-1.6,1.6-2.4,2.3c-0.3,0.2-0.9,0.2-1.3,0c-0.1,0-0.2-0.7-0.1-1
			c0.2-2.7,0.4-5.5,0.7-8.2c0.2-1.9,0.7-3.9,1.1-5.8c0.1-0.5,0.2-1,0.1-1.6c-0.2,0.2-0.4,0.5-0.6,0.7c-0.1,0-0.3,0-0.4-0.1
			c0.1-1.4,0.3-2.8,0.2-4.2c-0.2-3.6,1.7-6.4,3-9.5c0.1-0.3,0.7-0.5,1-0.8c0.2-0.2,0.4-0.6,0.3-0.9c-0.1-0.4-0.3-0.7-0.6-1.2
			c-1.2,2.6-1.9,5.4-3.8,7.5c0.1-0.6,0.1-1.3,0.2-1.9c-0.4-0.2-0.8-0.3-1-0.4c0.8-1.3,1.5-2.6,2.3-3.8c-0.9-1.6-0.4-3.9,0.9-5.1
			c1.1-0.9,1.8-2,1.1-3.5c-0.4-0.8-0.2-1.8-1.1-2.5c-0.6-0.4-0.5-1.8-0.6-2.8c-0.1-0.8-0.2-1.7-0.4-2.5c-0.2-0.8-1.1-1.6-0.2-2.5
			c0,0,0-0.2,0-0.3c-0.4-2.3-0.7-4.6-1.1-6.9c-10.2,2.9-20.4,2.9-30.6,0c-0.4,2.3-1.2,4.7-1,7c0.2,1.6-0.6,2.7-0.8,4.1
			c-0.1,0.7,0,1.5-0.2,2.2c-0.2,0.8-0.2,1.7-1,2.5c-1.4,1.5-0.9,4.4,0.8,5.6c1.1,0.9,1.5,3.6,0.7,4.8c0.3,0.7,0.7,1.3,1.1,2
			c0.4,0.6,0.8,1.2,1.2,1.8c-0.3,0.3-0.8,0.5-0.9,0.9c-0.1,0.4,0.1,1,0.1,1.5c-0.1,0.1-0.2,0.1-0.3,0.2c-0.5-0.8-1-1.5-1.4-2.3
			c-0.4-0.9-0.8-1.8-1.2-2.8c-0.3-0.8-0.7-1.6-1.1-2.7c-0.3,1-0.5,1.6-0.7,2.2c0.1,0,0.3-0.1,0.4-0.1c0.4,0.4,0.9,0.8,1.1,1.2
			c0.6,1.2,1.1,2.5,1.8,3.6c1.2,2,0.9,4.2,1.2,6.3c0.2,1.2,0.1,2.4,0.2,3.5c-0.1,0-0.2,0-0.3,0.1c-0.2-0.2-0.4-0.5-0.7-0.8
			c0,0.2-0.1,0.3-0.1,0.4c0.4,1.6,0.8,3.2,1.2,4.8c0.1,0.5,0.2,1,0.2,1.5c-0.3,3.1,0.5,6.2,0.8,9.2c0,0.3-0.1,0.7-0.2,0.8
			c-0.3,0.1-0.8,0.2-1.1,0c-0.8-0.5-1.5-1-2.1-1.7c-1.4-1.7-3.1-3.3-4.1-5.2c-1.6-3-3.7-5.9-3.8-9.3c-0.1-3.5,0.3-7.1,0.8-10.7
			c0.2-1.4,1.3-2.7,2.1-4c0.6-1.1,1.2-2,0.6-3.4c-0.3-0.8,0.3-2,0.6-3.1c0.1-0.6,0.3-1.2,0.5-1.7c0.1-0.2,0.2-0.6,0.3-0.7
			c0.3,0,0.5,0.1,0.7,0.2c0.2-1.9,0.2-3.9,0.7-5.8c0.2-0.7,0.6-1.6,1.1-2.4c1.2-2,1.2-4.3,1.6-6.5c0.2-1.2,0.2-2.4,0.3-3.7
			c-2-0.3-1.4,1.6-2.2,2.3c0.1-0.7,0.2-1.3,0.3-2c-0.1,0-0.1-0.1-0.2-0.1c-0.8,1.3-1.6,2.6-2.5,3.9c0,0-0.1,0-0.1-0.1
			C41.5,139.6,42.1,138,43,136.2z M13.4,88c3.7,1.8,7.3,2.9,11,3.8c1.2,0.3,2.2,0.2,3.2-0.3c1.2-0.6,2.5-1.1,3.8-1.4
			c2.6-0.8,5.3-1.4,8-2.2c-4.5-0.8-8.8-2-12.9-3.9c-0.3-0.1-0.6-0.1-0.9-0.1C21.5,84.7,17.5,86.1,13.4,88z M83.2,93.7
			c0.6,0.3,0.9,0.5,1.2,0.6c2.4,1.4,5.1,2.5,7.1,4.3c2.9,2.5,6,3.1,9.5,2.7c0.1,0,0.2,0,0.2,0c2.3-0.2,4.7-0.5,7.3-0.7
			c-0.6-0.5-0.8-0.8-1.1-1c-2.8-1.9-5.6-3.7-8.4-5.6c-1-0.7-2.1-1-3.4-0.7c-0.8,0.2-1.7,0.3-2.5,0.3C89.9,93.7,86.7,93.7,83.2,93.7z
			 M27.6,53.7c0.1,0.4,0.1,0.6,0.1,0.7c1.4,3.8,3.2,7.4,5.5,10.8c0.3,0.4,0.8,0.6,1.2,0.8c3.1,1.6,6.2,3.1,9.3,4.7
			c0.7,0.4,1.4,0.9,1.9,1.3c-1.5-2.8-3.5-5.6-4.6-8.6c-1.1-3.1-3.1-5-6-6.3c-0.6-0.3-1.1-0.6-1.7-0.8C31.6,55.5,29.7,54.6,27.6,53.7
			z M86,129.9c-0.3-4.5-1.2-8.6-2.6-12.6c-0.1-0.4-0.6-0.8-0.9-1.1c-2.9-2.7-5.8-5.4-8.8-8.1c-0.2-0.2-0.3-0.5-0.5-0.7
			c-0.2,0.3-0.2,0.4-0.2,0.5c1.4,3.9,2.4,7.9,2.8,12c0,0.5,0.2,1.1,0.5,1.4C79.1,124.5,82.2,127.3,86,129.9z M55.8,109.9
			c-1.9,4-4.2,7.7-7,11.2c-0.2,0.2-0.2,0.6-0.2,0.9c-0.1,1.4-0.2,2.8-0.1,4.2c0.2,2.8,0.4,5.6,0.6,8.4c0.2,0,0.3,0.1,0.5,0.1
			c1.7-2.6,3.4-5.1,5.2-7.7c1.3-2,1.9-4,1.5-6.5C55.8,117,55.9,113.5,55.8,109.9z M37.6,129.8c0.4-0.3,0.6-0.4,0.8-0.5
			c2.9-2.6,5.8-5.2,8.6-7.8c0.3-0.3,0.5-0.9,0.6-1.3c0.4-2.2,0.7-4.5,1.2-6.7c0.5-2,1.1-4,1.8-6.3c-3.1,3.7-6.3,6.7-9.9,9.3
			c-0.3,0.2-0.4,0.6-0.5,0.9C38.8,121.4,38,125.5,37.6,129.8z M73.2,68.4c2.7-3.3,6-6.3,9.6-8.9c0.3-0.2,0.5-0.5,0.6-0.8
			c1.4-4,2.2-8.1,2.6-12.5c-0.3,0.2-0.6,0.3-0.8,0.5c-2.2,1.9-4.5,3.8-6.7,5.7c-1.7,1.4-2.5,3.1-2.9,5.4
			C75.1,61.4,74,64.9,73.2,68.4z M19.8,112.1c0.5,0,0.7,0,0.9,0c4-0.4,8-1.2,11.8-2.5c0.4-0.1,0.8-0.6,1.1-0.9
			c2.6-2.8,5.2-5.7,7.9-8.5c0.2-0.2,0.5-0.4,0.8-0.6c-0.1-0.1-0.1-0.2-0.2-0.3c-0.4,0.1-0.8,0.3-1.2,0.4c-2.6,0.7-5.1,1.7-7.8,1.9
			c-3.6,0.2-6.2,1.9-8.3,4.5c-0.2,0.3-0.5,0.6-0.8,0.9C22.7,108.5,21.3,110.2,19.8,112.1z M81.2,99.3c0.5,0.4,0.8,0.7,1.1,1
			c1.9,2,4.2,3.8,5.8,6.1c1.9,2.8,4.5,4.1,7.6,4.6c0.2,0,0.5,0.1,0.7,0.2c2.3,0.4,4.7,0.8,7,1.2c-0.1-0.6-0.2-1-0.5-1.2
			c-2.3-2.6-4.7-5.3-7-7.9c-0.6-0.7-1.4-1.1-2.4-1.1c-1.6-0.1-3.2-0.4-4.8-0.8C86.2,100.7,83.8,100,81.2,99.3z M81.9,77.1
			c-0.1-0.1-0.3-0.2-0.4-0.4c0.4-0.1,0.8-0.3,1.2-0.4c2.6-0.7,5.1-1.7,7.8-1.9c3.7-0.2,6.2-1.9,8.4-4.6c0.2-0.3,0.5-0.6,0.8-0.9
			c1.3-1.6,2.7-3.3,4.2-5.1c-0.6,0-0.8,0-1,0c-4,0.4-7.9,1.2-11.7,2.5c-0.4,0.1-0.8,0.5-1,0.9c-1.4,1.7-2.8,3.4-4.2,5.1
			C84.5,73.9,83.2,75.5,81.9,77.1z M49.3,41.3c-0.9,4.4-1,8.7-0.8,13c0,0.4,0.3,0.7,0.6,1.1c2.1,3.4,4.3,6.7,6.4,10.1
			c0.1,0.2,0.3,0.4,0.5,0.8c0-0.5,0-0.8,0-1.1c0.2-3.9,0.3-7.9,0.5-11.8c0-0.4,0.1-0.8-0.1-1.1C54.5,48.3,52.2,44.7,49.3,41.3z
			 M74.3,41.5c-0.1-0.1-0.3-0.1-0.4-0.2c-1.9,2.9-3.8,5.7-5.6,8.6c-0.5,0.8-1,1.5-0.5,2.6c0.1,0.2-0.2,0.7-0.3,1.1
			c-0.1,0.3-0.2,0.6-0.2,1c0.1,3.6,0.2,7.1,0.3,10.7c0,0.3,0,0.6,0,0.5c2.3-3.5,4.8-7.1,7.2-10.8c0.1-0.2,0.2-0.4,0.2-0.6
			C75.3,50,75.1,45.7,74.3,41.5z M39.9,82.3c-2.9-1.8-5.8-3.5-8.6-5.3c-0.9-0.6-1.6-1.6-2.9-1.4c-0.2,0-0.4-0.3-0.7-0.4
			c-0.4-0.2-0.8-0.5-1.2-0.5c-2.6,0-5.1,0.1-7.7,0.3c-1.2,0.1-2.4,0.3-3.6,0.5c0,0.2-0.1,0.3-0.1,0.5c2.9,1.9,5.8,3.8,8.7,5.7
			c1.5,1,3,1.4,4.8,0.9c0.6-0.2,1.2-0.2,1.8-0.2C33.7,82.3,36.9,82.3,39.9,82.3z M61.8,64.9c0.9-2.9,1.8-6.1,2.8-9.3
			c0.3-1,1-1.8,0.5-3c-0.1-0.2,0.2-0.6,0.2-0.9c0.1-0.5,0.3-1,0.2-1.4c-1.1-3.4-2.2-6.7-3.4-10.1c-0.1-0.2-0.2-0.3-0.6-0.8
			c-1.1,3.3-2.1,6.3-3.1,9.3c-0.7,2.2-0.6,4.1,0.3,6.3C60,58.4,60.8,61.9,61.8,64.9z M39.8,93.9c-1.5,0-3.2,0-4.9,0
			c-0.6,0-1.1,0.4-1.7,0.5c-0.5,0.1-1.3,0.3-1.5,0.1c-1.1-1.2-2.5-0.9-3.8-1.1c-0.8-0.1-1.8-0.2-2.4,0.1c-3.3,2-6.5,4.2-9.7,6.3
			c-0.2,0.1-0.3,0.3-0.6,0.6c4.3,0.8,8.5,1,12.8,0.7c0.4,0,0.9-0.3,1.2-0.6c1.6-1.1,3.1-2.3,4.7-3.4C35.9,96.1,38,95,39.8,93.9z
			 M83.6,82.2c0.2,0,0.5,0,0.7,0c3.8,0.1,7.7,0.2,11.5,0.4c1.9,0.1,4.3-0.9,5.3-2.5c0.2-0.4,0.9-0.5,1.3-0.7c0.2-0.1,0.6,0.1,0.8,0
			c1.7-1.2,3.4-2.4,5.1-3.7c0-0.2-0.1-0.3-0.1-0.5c-3.4-0.2-6.7-0.4-10.1-0.6c-1.9-0.1-3.7,0.2-5.1,1.7c-0.4,0.4-1,0.8-1.5,1.1
			C88.9,79,86.2,80.6,83.6,82.2z M61.8,136.4c1.8-4,3.2-7.8,3.9-11.8c0.1-0.6,0-1.3-0.2-1.9c-1-3.3-2.1-6.5-3.2-9.8
			c-0.2-0.7-0.3-1.5-0.5-2.3c-0.4,1-0.6,1.9-0.8,2.9c-0.2,0.9-0.6,1.8,0,2.8c0.2,0.3-0.2,1.3-0.5,1.5c-0.8,0.4-1,1-1.2,1.7
			c-0.3,0.7-0.5,1.5-0.8,2.2c-0.9,1.5-0.8,3-0.3,4.7C59,129.6,60.1,132.9,61.8,136.4z M20.2,63.7c0,0.1-0.1,0.2-0.1,0.3
			c0.2,0.3,0.4,0.7,0.6,0.9c2,2.3,4,4.6,6,6.9c0.6,0.6,1.2,1.4,2.2,1c0.2-0.1,0.6,0.1,0.7,0.3c0.5,1,1.4,0.8,2.2,1
			c1.3,0.2,2.7,0.5,4,0.8c2.1,0.5,4.2,1.1,6.5,1.8c-0.4-0.4-0.7-0.7-1-0.9c-2-2-4.3-3.8-5.8-6.1c-1.9-2.7-4.3-4.1-7.4-4.6
			C25.5,64.6,22.9,64.2,20.2,63.7z M110,88.3c0-0.1-0.1-0.3-0.1-0.4c-3.5-1.7-7.2-2.9-11-3.8c-1.1-0.3-2.1-0.1-3.1,0.3
			c-1.3,0.6-2.7,1.1-4.1,1.5c-2.5,0.7-5,1.4-7.6,2c1.2,0.3,2.3,0.6,3.4,0.7c0.6,0.1,1.2,0,1.8-0.2c0.8-0.2,1.3-0.1,1.9,0.5
			c0.4,0.4,0.8,0.8,1.3,1.1c0.8,0.4,1.6,0.5,2.4,0.9c1.8,1,3.6,1,5.4,0.4C103.6,90.4,106.8,89.4,110,88.3z M77.8,104.1
			c0.8,1.3,1.7,2.8,2.7,4.3c0.2,0.4,0.7,0.7,1.1,0.9c0.7,0.4,1,0.9,0.9,1.7c0,0.6,0,1.2,0.2,1.7c0.3,0.8,0.6,1.6,1,2.3
			c0.4,0.7,0.9,1.4,1.5,1.8c2,1.2,4.2,2.4,6.3,3.5c1.4,0.7,2.9,1.2,4.3,1.8c0.1-0.1,0.2-0.2,0.3-0.3c-1.3-2.7-2.6-5.3-3.9-8
			c-1.1-2.4-2.8-4-5.4-5C83.6,107.6,80.7,105.7,77.8,104.1z M77.7,72c3.8-2.4,7.6-4.5,11.8-6.1c0.4-0.1,0.7-0.5,0.9-0.9
			c1.6-2.9,3.1-5.7,4.6-8.6c0.4-0.8,0.6-1.6,1.1-2.7c-4.3,1.6-8.3,3.3-11.6,6c-1.2,1-1.5,3-2.2,4.6c0,0.1,0.2,0.3,0.2,0.5
			c0.3,0.9-0.1,1.7-1,2c-0.3,0.1-0.7,0.2-0.8,0.5C79.6,68.9,78.6,70.5,77.7,72z M74.3,134.7c0.2-1.3,0.3-2.4,0.5-3.5
			c0.1-0.7,0.1-1.3-0.4-1.9c-0.3-0.3-0.2-1.3,0.1-1.5c0.7-0.6,0.7-1.3,0.7-2c0-1.1,0-2.2-0.1-3.3c-0.1-0.8-0.4-1.5-0.8-2.2
			c-2-3.2-4-6.4-6.1-9.6c-0.2-0.3-0.3-0.5-0.5-0.8c-0.1,4.5-0.4,8.9-0.7,13.3c0,0.2,0,0.5,0.1,0.7C69,127.7,71.3,131.3,74.3,134.7z
			 M27.6,122.1c0.4-0.1,0.5-0.1,0.6-0.1c3.8-1.4,7.4-3.2,10.7-5.5c0.4-0.3,0.7-0.8,0.9-1.3c1-2.1,1.9-4.2,2.9-6.2
			c0.9-1.8,2-3.4,3.1-5.1c-1.2,1.2-3.4,1.2-4,3.3c-0.1,0.3-0.9,0.5-1.4,0.6c-0.3,0.1-0.6-0.2-1-0.3c-0.3,1-0.7,1.7-1.9,1.6
			c-1.9-0.2-3.6,0.4-4.5,2c-1.6,2.7-3,5.6-4.5,8.4C28.2,120.3,28,121.1,27.6,122.1z M50.5,68.3c-0.2-0.7-0.5-1.5-0.8-2.3
			c-0.3-0.7-0.3-1.5-1.2-2c-0.3-0.2-0.3-1.1-0.3-1.7c0-0.5,0.2-1.1,0.2-1.6c-0.1-0.8-0.4-1.6-0.4-2.4c0-2.5-1-4.5-3-5.9
			c-0.5-0.4-1.1-0.5-1.6-0.9c-0.5-0.4-0.9-0.8-1.3-1.3c-0.1-0.2-0.1-0.6-0.2-0.7c-1.4-1.1-2.8-2.2-4.2-3.3c-0.1,0.1-0.2,0.1-0.3,0.2
			c0.6,3,1.2,6.1,1.8,9.1c0.5,2.4,1.6,4.2,3.6,5.8C45.6,63.3,48,65.9,50.5,68.3z M26.7,73.5c-2.5-2.9-5.1-5.9-7.9-9.1
			c-1.4,3.3-2.7,6.5-4.1,9.9C19,74,22.9,73.7,26.7,73.5z M18.8,111.6c2.8-3.2,5.4-6.2,7.9-9.1c-3.8-0.3-7.7-0.5-12-0.8
			C16.1,105.1,17.5,108.3,18.8,111.6z M108.9,74.3c-1.4-3.4-2.8-6.6-4.1-9.8c-2.8,3.2-5.4,6.2-7.9,9C100.6,73.7,104.5,74,108.9,74.3
			z M104.6,111.4c1.6-3.1,3.1-6.3,4-9.7c-4.1,0.3-8,0.5-11.8,0.8C99.3,105.4,101.9,108.3,104.6,111.4z M85.4,45
			c-3.3-1.4-6.6-2.7-9.9-4.1c0.3,4.2,0.6,8.2,0.8,12C79.2,50.4,82.1,47.8,85.4,45z M62.9,39c1.4,4,2.7,7.8,3.9,11.4
			c2.1-3.2,4.3-6.5,6.7-10C69.9,39.9,66.4,39.4,62.9,39z M24.1,92.9c-3.6-1.2-7.3-2.5-11.4-3.9c0.5,3.6,0.9,7.1,1.4,10.6
			C17.7,97.3,21,95,24.1,92.9z M56.8,50.3c1.2-3.6,2.5-7.4,3.9-11.4c-3.6,0.5-7.1,0.9-10.6,1.4C52.5,43.9,54.7,47.2,56.8,50.3z
			 M109.4,99.6c0.5-3.6,0.9-7,1.4-10.6c-4,1.4-7.8,2.7-11.3,3.9C102.6,95,105.9,97.3,109.4,99.6z M97.2,54.1
			c-1.9,3.9-3.6,7.4-5.3,10.8c3.7-0.7,7.6-1.5,11.8-2.3C101.5,59.7,99.4,56.9,97.2,54.1z M28.2,123.3c1.4,1.8,6.9,5.9,8.2,6.3
			c0.8-3.9,1.5-7.8,2.3-11.4C35.3,119.8,31.7,121.5,28.2,123.3z M84.9,118.1c0.7,3.7,1.5,7.6,2.3,11.8c2.9-2.2,5.7-4.4,8.4-6.5
			C91.8,121.5,88.2,119.8,84.9,118.1z M26.4,121.9c1.9-3.9,3.6-7.4,5.3-10.8c-3.7,0.7-7.6,1.5-11.8,2.3
			C22.1,116.3,24.2,119,26.4,121.9z M97.2,121.9c2.2-2.8,4.3-5.6,6.5-8.5c-4.2-0.8-8.1-1.6-11.8-2.3C93.6,114.5,95.3,118,97.2,121.9
			z M66.7,125.6c-1.2,3.6-2.5,7.3-3.9,11.4c3.6-0.5,7.1-0.9,10.6-1.4C71,132,68.8,128.8,66.7,125.6z M19.9,62.6
			c4.2,0.8,8.1,1.6,11.8,2.3c-1.7-3.4-3.4-6.9-5.3-10.8C24.2,56.9,22.1,59.7,19.9,62.6z M56.8,125.6c-2.1,3.1-4.3,6.4-6.6,9.8
			c3.4,0.8,6.9,1.3,10.4,1.4C59.3,132.9,58,129.2,56.8,125.6z M38.7,58c-0.8-3.8-1.5-7.8-2.4-11.9c-2.8,2.2-5.6,4.3-8.6,6.6
			c2.1,0.9,3.9,1.7,5.7,2.5C35.3,56.1,37,57.1,38.7,58z M84.9,57.9c3.4-1.6,6.9-3.4,10.8-5.3c-2.8-2.2-5.6-4.3-8.4-6.5
			C86.4,50.3,85.6,54.2,84.9,57.9z M13,86.8c3.9-1.3,7.6-2.6,11.2-3.8c-3.1-2.1-6.4-4.3-9.9-6.6c0,1,0.2,2-0.1,2.9
			c-0.3,0.8-0.6,1.5-0.2,2.4c0,0.1-0.1,0.2-0.1,0.3C12.6,83.4,13.3,85.2,13,86.8z M47.2,123.1c-2.9,2.5-5.8,5.1-8.9,7.8
			c1.4,0.7,2.8,1.4,4.3,2c0.3,0.1,0.6,0.2,1,0.3c1.4,0.2,2.8,0.2,3.8,1.4c0.2,0.2,0.5,0.2,0.7,0.3C47.8,130.8,47.5,126.9,47.2,123.1
			z M47.2,52.9c0.3-3.8,0.5-7.8,0.8-11.8c-3.4,1-6.7,2.3-9.8,4.1c1.5,1.1,2.7,2.5,4.2,3.1c1.4,0.6,2.4,0.9,2.8,2.6
			C45.4,51.8,46.6,52.4,47.2,52.9z M75.3,135c0.4-0.3,0.7-0.4,1-0.6c0.4-0.2,0.7-0.5,1.1-0.6c1-0.3,2.1-0.4,3.1-0.8
			c1.6-0.6,3.2-1.5,4.8-2.2c-3.1-2.7-6.1-5.3-9.1-7.9c0,1.3-0.4,2.8,0.1,3.9c0.6,1.4,0.5,2.3-0.2,3.7
			C75.4,131.7,75.5,133.4,75.3,135z M109.3,76.2c-1.7,1.3-3.2,2.3-4.7,3.5c-0.4,0.3-0.7,0.8-0.9,1.3c-0.3,0.8-0.9,1.3-1.5,1.1
			c-1.4-0.5-2.1,0.5-3,0.9c3.8,1.3,7.5,2.6,11.4,3.9c-0.4-1.7,0.4-3.6-1-5.1c-0.1-0.1,0-0.5,0-0.8c0-0.4-0.1-0.8-0.1-1.2
			c0-0.2-0.2-0.4-0.2-0.6C109.3,78.3,109.3,77.3,109.3,76.2z M80,87.5c5.3-0.5,10.3-1.7,15.1-3.9c-5.2-0.8-10.4-0.7-15.6,0.2
			C79.7,85,79.9,86.1,80,87.5z M44,83.8c-5.2-0.9-10.4-1-15.6-0.2c4.8,2.1,9.8,3.4,15.1,3.8C43.7,86.1,43.9,85,44,83.8z M30.7,100.9
			c3.3,0,12-2.5,15-4.3c-0.5-1.1-0.9-2.2-1.4-3.3C40.8,94.3,33.1,98.5,30.7,100.9z M41.3,61.4c1.9,4.9,4.6,9.3,7.9,13.4
			c1-0.8,2-1.5,2.9-2.3C49.1,68.2,45.6,64.4,41.3,61.4z M45.7,79.3c-4.8-2.1-9.7-3.6-15-4.2c4.1,3.3,8.6,5.8,13.5,7.6
			C44.8,81.5,45.2,80.5,45.7,79.3z M77.3,78.4c4.3-3.1,8.1-6.6,11.1-10.9c-4.9,1.9-9.3,4.6-13.4,8C75.8,76.5,76.5,77.4,77.3,78.4z
			 M92.8,100.8c-4.1-3.3-8.6-5.8-13.5-7.6c-0.5,1.2-0.9,2.3-1.4,3.4C82.7,98.8,87.6,100.3,92.8,100.8z M79.3,82.8
			c5-1.9,9.5-4.3,13.5-7.6c-5.2,0.6-10.2,2-15,4.2C78.3,80.5,78.8,81.6,79.3,82.8z M75,100.5c4.1,3.4,8.5,6.1,13.4,8
			c-3.1-4.2-6.9-7.8-11.2-10.9C76.5,98.6,75.8,99.5,75,100.5z M48.5,75.5c-4.1-3.3-8.4-6-13.4-8.1c1.8,3.1,8.4,9.5,11.2,10.9
			C47,77.4,47.7,76.5,48.5,75.5z M41.4,114.6c2.5-1.3,9.2-8.2,10.7-11.2c-0.9-0.7-1.9-1.4-2.8-2.1C46.6,104.2,41.9,112,41.4,114.6z
			 M62.4,69.8c1.2,0.1,2.4,0.3,3.5,0.4c0.9-3.5,1.1-13.7,0.2-15.5C64.5,57.9,62.6,65.4,62.4,69.8z M48.9,119.1
			c3.3-4.1,5.8-8.7,7.6-13.6c-1.2-0.5-2.3-0.9-3.4-1.4C50.9,108.9,49.5,113.9,48.9,119.1z M57.4,54.7c-0.8,5.2-0.7,10.3,0.2,15.5
			c1.3-0.2,2.4-0.3,3.6-0.5C60.7,64.5,59.5,59.5,57.4,54.7z M62.3,106.2c0.5,5.3,1.7,10.3,3.9,15c0.7-5.2,0.7-10.4-0.2-15.5
			C64.7,105.9,63.6,106.1,62.3,106.2z M67,105.5c1.9,5,4.4,9.5,7.7,13.6c-0.6-5.2-2-10.2-4.3-15.1C69.3,104.5,68.2,105,67,105.5z
			 M70.4,71.9c2.2-4.8,3.7-9.8,4.2-15.1c-3.3,4.1-5.8,8.7-7.6,13.6C68.2,71,69.3,71.4,70.4,71.9z M79.5,92.2
			c5.2,0.9,10.4,1,15.6,0.2c-0.4-0.3-0.9-0.5-1.3-0.6c-1.2-0.4-2.3-1.2-3.6-0.5c-0.3,0.1-1-0.1-1.1-0.4c-0.5-1-1.4-1-2.2-1.2
			c-2.3-0.4-4.5-0.8-6.8-1.2C79.9,89.8,79.7,91,79.5,92.2z M82.2,61.4c-4.2,3.1-7.8,6.8-10.8,11.1c1,0.8,2,1.5,3.1,2.4
			c1.7-2.6,3.4-5,5-7.5c0.3-0.4,0.2-1.1,0.3-1.6c0.1-0.5,0.2-1.2,0.6-1.3C81.7,63.9,81.7,62.4,82.2,61.4z M61.4,106.2
			c-1.4-0.2-2.6-0.3-3.8-0.5c-0.9,5.2-1,10.4-0.2,15.5c0.5-1,1.3-2.1,1.2-3.1c-0.2-1.5,0.6-2.4,1-3.6
			C60.6,112,60.8,109.1,61.4,106.2z M43.5,88.5c-5.3,0.5-10.3,1.7-15.1,3.9c1.1,0.1,2.3,0.8,3.4-0.3c0.2-0.2,1.1,0.2,1.6,0.3
			c0.3,0.1,0.6,0.5,0.8,0.5c3.2-0.1,6.5-0.3,9.8-0.5C43.9,91,43.7,89.8,43.5,88.5z M48.8,56.8c0.1,0.9,0.2,1.6,0.4,2.3
			c0.2,1.1,0.1,2.3,1.3,3c0.3,0.2,0.4,1,0.2,1.2c-0.5,0.8-0.2,1.5,0,2.2c0.4,1.2,0.8,2.3,1.2,3.5c0.4,1,0.8,1.9,1.2,2.8
			c1.3-0.5,2.3-1,3.4-1.4C55.5,67,51,58.9,48.8,56.8z M82.4,114.7c-0.7-1.1-0.6-2.5-2-2.9c-0.3-0.1-0.7-0.9-0.6-1.2
			c0.4-1.1-0.2-1.8-0.7-2.6c-0.9-1.4-1.8-2.7-2.7-4.1c-0.6-0.9-1.3-1.7-2-2.6c-1,0.8-2,1.5-2.9,2.2
			C73.3,106.7,79.5,113.1,82.4,114.7z M46.2,97.6c-4.3,3.1-8.1,6.7-11.2,10.9c0.5-0.2,1.3-0.3,1.4-0.7c0.4-1.6,1.4-1.6,2.3-1.3
			c0.8-0.6,1.5-1.5,2-1.4c1.1,0.2,1.8-0.4,2.6-0.9c1.8-1.2,3.5-2.5,5.2-3.7C47.7,99.5,47,98.5,46.2,97.6z M82.7,162
			c-0.1,0-0.2,0-0.3,0c0,1.3-0.1,2.6,0,3.8c0.1,2,0.5,4.1,0.6,6.1c0.1,3.3,0,6.7,0,10.2c0.2-1.2,0.5-2.2,0.6-3.2
			C84.1,173.2,84.1,167.6,82.7,162z M41.2,161.9c-0.1,0-0.2,0-0.4,0c-1.4,6.7-1.6,13.3-0.3,20c0-2.5-0.2-5-0.1-7.5
			c0.1-2.9,0.5-5.7,0.7-8.6C41.3,164.5,41.2,163.2,41.2,161.9z M61.1,83c0-3.2,0-6.6,0-10.1c-1,0.1-1.7,0.2-2.4,0.3
			C59.5,76.6,60.3,79.9,61.1,83z M62.4,72.8c0,3.5,0,6.9,0,10.3c0.8-3.2,1.6-6.5,2.5-10C64.2,73.1,63.4,73,62.4,72.8z M61.1,103.1
			c0-3.6,0-7,0-10.4c-0.8,3.4-1.6,6.7-2.5,10.1C59.4,102.9,60.1,103,61.1,103.1z M62.4,103.1c1-0.1,1.7-0.2,2.5-0.3
			c-0.8-3.4-1.7-6.7-2.5-10C62.4,96.2,62.4,99.6,62.4,103.1z M76.2,92.7c-3.4-1-6.7-1.9-10.2-2.9c3.2,1.7,6.2,3.4,9.3,5.1
			C75.6,94.1,75.9,93.4,76.2,92.7z M48.3,94.9c3.1-1.7,6.1-3.4,9.2-5.1c-3.5,1-6.8,2-10.1,2.9C47.7,93.4,47.9,94.1,48.3,94.9z
			 M75.3,81.1c-3.1,1.7-6.1,3.4-9.3,5.1c3.5-1,6.8-2,10.2-3C75.9,82.6,75.6,81.9,75.3,81.1z M57.6,86.2c-3.2-1.8-6.2-3.4-9.3-5.1
			c-0.3,0.8-0.6,1.5-0.9,2.2C50.8,84.3,54,85.2,57.6,86.2z M58.2,90.8c-3.2,1.9-6.1,3.7-9.1,5.5c0.5,0.6,1,1.3,1.4,1.9
			C53,95.7,55.5,93.3,58.2,90.8z M70.1,75.3c-1.8,3-3.6,5.9-5.5,9.1c2.5-2.6,4.9-5.1,7.3-7.6C71.3,76.2,70.7,75.8,70.1,75.3z
			 M51.6,76.7c2.4,2.5,4.8,5,7.3,7.6c-1.9-3.1-3.6-6-5.5-9.1C52.9,75.8,52.2,76.2,51.6,76.7z M66.5,102.4c0.8-0.3,1.5-0.6,2.1-0.9
			c-1.7-3.1-3.3-6-4.9-8.9c0,0-0.1,0-0.1,0C64.6,95.9,65.5,99.1,66.5,102.4z M53.5,100.7c1.8-3,3.6-5.9,5.5-9.1
			c-2.6,2.7-4.9,5.1-7.4,7.7C52.3,99.8,52.9,100.2,53.5,100.7z M71.9,99.3c-2.4-2.5-4.8-5-7.3-7.6c1.9,3.2,3.7,6.1,5.5,9.1
			C70.7,100.2,71.3,99.7,71.9,99.3z M65.4,90.8c2.7,2.6,5.1,4.9,7.6,7.4c0.5-0.7,1-1.3,1.4-1.9C71.5,94.4,68.6,92.7,65.4,90.8z
			 M65.4,85.2c3.2-1.9,6.1-3.7,9.1-5.5c-0.6-0.7-1-1.3-1.5-1.8C70.5,80.3,68.1,82.6,65.4,85.2z M57.1,102.4c1-3.4,1.9-6.6,2.8-9.8
			c0,0-0.1,0-0.1,0c-1.6,2.9-3.2,5.9-4.9,8.9C55.6,101.8,56.3,102.1,57.1,102.4z M46.9,91.1c3.4-0.8,6.7-1.6,9.7-2.4
			c-3.2,0-6.6,0-10.1,0C46.7,89.6,46.8,90.3,46.9,91.1z M50.5,77.8c-0.5,0.6-0.9,1.3-1.4,1.9c3,1.8,5.9,3.5,9,5.4
			C55.4,82.6,53,80.3,50.5,77.8z M66.5,73.6c-1,3.4-1.9,6.6-2.9,10.1c1.8-3.2,3.4-6.2,5.1-9.2C67.9,74.1,67.2,73.9,66.5,73.6z
			 M59.8,83.3C59.8,83.3,59.8,83.3,59.8,83.3c-0.8-3.2-1.8-6.4-2.7-9.8c-0.8,0.3-1.5,0.6-2.1,0.9C56.6,77.5,58.2,80.4,59.8,83.3z
			 M77,88.7c-3.5,0-6.9,0-10.2,0c3.2,0.8,6.5,1.6,9.9,2.4C76.7,90.4,76.8,89.6,77,88.7z M46.6,87.3c3.5,0,6.9,0,10.2,0
			c-3.3-0.8-6.6-1.6-9.9-2.4C46.8,85.7,46.7,86.4,46.6,87.3z M66.7,87.3c3.4,0,6.7,0,10.3,0c-0.1-0.9-0.3-1.7-0.4-2.4
			C73.2,85.7,70,86.5,66.7,87.3z M46.6,186.6c0.1,0,0.1,0,0.2,0c-0.3-2-0.7-3.9-1-5.9c-0.1,0-0.2,0-0.3,0.1
			C45.8,182.7,46.2,184.7,46.6,186.6z M76.8,186.5c0.1,0,0.2,0,0.2,0c0.4-1.9,0.7-3.9,1.1-5.8c-0.1,0-0.2,0-0.3-0.1
			C77.4,182.6,77.1,184.6,76.8,186.5z"/>
	</g>
	<g>
		<path fill="#338ECD" d="M13.9,14.5l5.2-3.1c3-1.8,5.5-1,7.4,2.3l8,13.6c1.9,3.3,1.3,5.9-1.8,7.7l-5,2.9L13.9,14.5z M19.2,15.9
			l9.8,16.8l1.5-0.9c1-0.6,1.2-1.4,0.5-2.5l-8-13.6c-0.6-1.1-1.4-1.3-2.4-0.7L19.2,15.9z"/>
		<path fill="#338ECD" d="M34.8,4.2l5.5-1.4c3.4-0.9,5.6,0.5,6.5,4.2l2,7.5c0.6,2.3,0,4.1-1.8,5.4l6.6,7.6l-4.2,1.1l-5.5-7.2
			l-0.5,0.2l2.1,8l-3.8,1L34.8,4.2z M39.6,7L42.5,18l0.9-0.2c0.5-0.1,0.9-0.3,1.1-0.4c0.6-0.5,0.8-1.1,0.6-2l-2-7.5
			c-0.3-1.2-1-1.7-2.1-1.4L39.6,7z"/>
		<path fill="#338ECD" d="M57.6,0l10.2,0.2L67.7,4l-6.3-0.1l-0.2,11.4l5.4,0.1l-0.1,3.9l-5.4-0.1l-0.1,4.2l6.3,0.1l-0.1,3.9
			l-10.2-0.2L57.6,0z"/>
		<path fill="#338ECD" d="M82.5,9.1l-8.2,19.5l-3.8-1l11-25.2l5.2,1.4l-3.2,27.4l-3.8-1L82.5,9.1z"/>
		<path fill="#338ECD" d="M98.7,29.9l14.1-13l3.3,2.2L101,41.7l-3.1-2.1l8.5-12.7L95.1,37.8l-2.2-1.5l5.6-14.7L90,34.4l-3.2-2.1
			l15.1-22.7l3.3,2.2L98.7,29.9z"/>
	</g>
</g>
</svg>
